<?xml version="1.0" encoding="UTF-8" standalone="no"?>
<!-- Created with Inkscape (http://www.inkscape.org/) -->

<svg
   version="1.1"
   id="svg1887"
   width="924"
   height="440"
   viewBox="0 0 924 440"
   sodipodi:docname="letras issste logo.svg"
   inkscape:version="1.1.2 (b8e25be833, 2022-02-05)"
   xmlns:inkscape="http://www.inkscape.org/namespaces/inkscape"
   xmlns:sodipodi="http://sodipodi.sourceforge.net/DTD/sodipodi-0.dtd"
   xmlns="http://www.w3.org/2000/svg"
   xmlns:svg="http://www.w3.org/2000/svg">
  <defs
     id="defs1891" />
  <sodipodi:namedview
     id="namedview1889"
     pagecolor="#505050"
     bordercolor="#eeeeee"
     borderopacity="1"
     inkscape:pageshadow="0"
     inkscape:pageopacity="0"
     inkscape:pagecheckerboard="0"
     showgrid="false"
     inkscape:zoom="1.241342"
     inkscape:cx="462"
     inkscape:cy="219.92328"
     inkscape:window-width="1600"
     inkscape:window-height="837"
     inkscape:window-x="-8"
     inkscape:window-y="-8"
     inkscape:window-maximized="1"
     inkscape:current-layer="g1893" />
  <g
     inkscape:groupmode="layer"
     inkscape:label="Image"
     id="g1893">
    <path
       style="fill:#ffffff"
       d="m 27.389712,410.19355 c -0.80267,-0.80267 -1.2,-5.25449 -1.2,-13.44521 v -12.24521 l -4.75,-0.30479 c -4.599834,-0.29515 -4.760249,-0.41212 -5.074183,-3.69993 -0.194281,-2.03468 0.206424,-3.74095 1,-4.25817 1.568887,-1.02252 26.129811,-0.89387 27.811838,0.14568 0.638391,0.39455 1.014829,2.24517 0.836528,4.11249 -0.313934,3.28781 -0.474349,3.40478 -5.074183,3.69993 l -4.75,0.30479 v 11.86342 c 0,6.52489 -0.273145,12.57523 -0.606989,13.44521 -0.72618,1.8924 -6.417207,2.15759 -8.193011,0.38179 z m 26.899836,-0.17971 c -1.381769,-1.66492 -1.330042,-30.20071 0.05958,-32.87029 1.801661,-3.46113 21.212319,-1.6283 25.509516,2.40871 5.012201,4.70872 5.299787,12.34814 0.67189,17.84809 l -2.48974,2.95889 3.184586,4.43445 c 1.751522,2.43895 2.88347,4.92167 2.51544,5.51716 -0.36803,0.59548 -2.400376,1.0827 -4.516324,1.0827 -3.470994,0 -4.198423,-0.48891 -7.43932,-5 -2.665574,-3.71029 -4.237428,-5 -6.093805,-5 -2.289237,0 -2.501659,0.37302 -2.501659,4.39301 0,3.08336 -0.471565,4.57397 -1.581787,5 -2.693235,1.03349 -6.119606,0.67172 -7.318377,-0.77272 z m 18.700164,-17.82029 c 0.66,-0.66 1.2,-2.145 1.2,-3.3 0,-3.18606 -1.956305,-4.5 -6.7,-4.5 h -4.3 v 4.5 4.5 h 4.3 c 2.365,0 4.84,-0.54 5.5,-1.2 z m 16.632159,17.8838 c -0.303473,-0.79083 2.701309,-8.70376 6.677292,-17.58427 5.949037,-13.2874 7.654817,-16.25324 9.633547,-16.74987 3.46937,-0.87076 6.7109,0.96598 8.48307,4.80675 7.93835,17.20455 12.79343,29.00304 12.27796,29.83709 -0.71648,1.15928 -6.50756,1.33334 -8.02437,0.24119 -0.5612,-0.40408 -1.5443,-1.92884 -2.18467,-3.38835 -1.0154,-2.31426 -1.84415,-2.69796 -6.47966,-3 -7.99291,-0.52081 -9.34482,-0.0928 -10.905761,3.4523 -1.17583,2.67051 -2.032731,3.2529 -5.167604,3.5122 -2.567504,0.21237 -3.932834,-0.14467 -4.309804,-1.12704 z m 21.567849,-14.71592 c 0,-0.56766 -0.72672,-2.70516 -1.61493,-4.75 l -1.61491,-3.71788 -1.33998,3 c -2.20949,4.94669 -1.83435,6.5 1.56981,6.5 1.65,0 3.00001,-0.46445 3.00001,-1.03212 z m 23.75,15.47885 c -0.4125,-0.42904 -0.75,-8.33467 -0.75,-17.56808 v -16.78802 l 3.62338,-0.67975 c 6.33225,-1.18794 19.36563,0.1911 22.27512,2.35689 3.64284,2.71169 4.78665,6.44856 3.2633,10.66133 -1.08115,2.98987 -0.98327,3.8151 0.79935,6.739 3.47744,5.70378 2.04046,10.79814 -3.90829,13.85555 -2.76489,1.42104 -24.14851,2.62369 -25.30286,1.42308 z m 20.23943,-8.934 c 2.47419,-2.98121 0.45216,-4.51273 -5.95805,-4.51273 h -6.03138 v 3 c 0,2.96142 0.0692,3 5.37756,3 3.53963,0 5.79941,-0.50831 6.61187,-1.48727 z m -1.1504,-14.8929 c 0.47933,-2.5191 -1.4711,-3.58608 -6.58903,-3.60452 -4.07507,-0.0147 -4.25,0.11032 -4.25,3.03695 v 3.05226 l 5.24063,-0.30226 c 4.198,-0.24212 5.31182,-0.67633 5.5984,-2.18243 z m 17.82764,23.7135 c -0.36667,-0.36666 -0.66667,-1.2426 -0.66667,-1.94653 0,-1.57256 12.69169,-30.31038 14.17611,-32.099 1.36294,-1.64224 5.96311,-1.66389 8.03207,-0.0378 2.3268,1.82874 15.1756,31.30751 14.45939,33.17391 -0.77837,2.02841 -6.02654,2.07426 -8.03063,0.0702 -0.82826,-0.82826 -1.77783,-2.36262 -2.11016,-3.4097 -0.47148,-1.4855 -1.74919,-1.97854 -5.81551,-2.24408 -7.94027,-0.51851 -9.22301,-0.0874 -11.03291,3.708 -1.39292,2.92098 -2.16101,3.4517 -4.99551,3.4517 -1.84224,0 -3.64952,-0.3 -4.01618,-0.66667 z m 20.70096,-15.11915 c 0.26711,-0.4322 -0.32606,-2.5697 -1.31816,-4.75 -1.79788,-3.95113 -1.80708,-3.95595 -2.79311,-1.46418 -2.63486,6.65842 -2.60474,7 0.61724,7 1.6546,0 3.22691,-0.35362 3.49403,-0.78582 z m 23.63237,14.03427 c -4.1498,-2.07306 -4.93159,-5.09539 -2.00349,-7.74529 2.0013,-1.81116 2.20321,-1.8164 5.05597,-0.13123 1.71533,1.01327 3.81181,1.48853 4.95947,1.12428 1.78745,-0.56732 1.98805,-1.52704 1.98805,-9.51134 v -8.88035 l -5.25,-0.30226 c -5.16938,-0.29762 -5.25498,-0.3544 -5.57418,-3.6974 -0.19497,-2.04185 0.20363,-3.72977 1,-4.23468 2.08005,-1.31879 17.24412,-1.05024 18.62418,0.32982 1.52165,1.52165 1.62093,21.744 0.13306,27.10202 -1.93453,6.96643 -11.11768,9.85064 -18.93306,5.94643 z m 26.35374,0.231 c -0.52935,-1.37946 11.72502,-30.70611 13.75173,-32.91008 1.33131,-1.44774 7.61199,-1.61474 8.75882,-0.2329 2.00143,2.41159 14.21913,30.99227 13.92135,32.56603 -0.19895,1.05144 -1.57707,1.70334 -4.0317,1.90713 -3.40214,0.28247 -3.87665,8.9e-4 -5.40712,-3.20853 -1.91537,-4.01657 -2.47994,-4.2228 -10.31979,-3.76966 -5.41679,0.31309 -5.82454,0.52072 -7.36448,3.75 -1.40324,2.94264 -2.12407,3.41856 -5.17776,3.41856 -2.2522,0 -3.76061,-0.55521 -4.13105,-1.52055 z m 21.60434,-14.72945 c -0.0231,-0.6875 -0.85192,-2.77016 -1.84194,-4.62813 l -1.80002,-3.37813 -1.554,3.87813 c -0.85469,2.13297 -1.34926,4.21563 -1.09904,4.62813 0.77847,1.28333 6.33999,0.84159 6.295,-0.5 z m 23.24192,15.05 c -0.83184,-0.83184 -1.2,-6.03663 -1.2,-16.96482 0,-18.25152 -0.23076,-17.83518 9.88504,-17.83518 16.80309,0 25.11496,5.96247 25.11496,18.01608 0,12.01225 -8.29526,17.98392 -24.9815,17.98392 -4.59217,0 -8.09518,-0.47668 -8.8185,-1.2 z m 21.87692,-10.72308 c 1.995,-1.99499 2.92308,-3.92442 2.92308,-6.07692 0,-2.1525 -0.92808,-4.08193 -2.92308,-6.07692 -2.46309,-2.4631 -3.72199,-2.92308 -8,-2.92308 h -5.07692 v 9 9 h 5.07692 c 4.27801,0 5.53691,-0.45998 8,-2.92308 z m 28.92308,9.9744 c -5.05402,-2.68627 -7.70838,-5.92512 -9.08879,-11.09011 -4.1241,-15.43098 11.64542,-27.88752 26.66739,-21.06488 13.09093,5.94561 13.61419,24.61628 0.89183,31.82199 -5.04466,2.8572 -13.43667,3.0085 -18.47043,0.333 z m 15.92742,-9.68618 c 1.25547,-1.59607 2.07258,-4.10551 2.07258,-6.36514 0,-5.6937 -3.09974,-9 -8.43772,-9 -6.29056,0 -9.56228,2.88696 -9.56228,8.43772 0,6.53868 2.84581,9.56228 9,9.56228 4.05369,0 5.19686,-0.43481 6.92742,-2.63486 z m 21.73925,10.96819 c -0.36667,-0.36666 -0.66667,-8.19352 -0.66667,-17.39301 0,-18.941 -0.47593,-17.94032 8.53257,-17.94032 8.69143,0 14.84678,1.74274 18.08188,5.11946 2.44841,2.55559 2.88555,3.82518 2.88555,8.38054 0,4.50299 -0.44644,5.83466 -2.76866,8.25854 l -2.76867,2.88986 3.09078,4.26669 c 3.65143,5.04065 3.28253,7.09085 -1.27207,7.0696 -3.9683,-0.0185 -4.43238,-0.32785 -8.68325,-5.78773 -4.40601,-5.65913 -7.4475,-5.54778 -7.92263,0.29006 -0.17847,2.19287 -0.85347,4.32348 -1.5,4.73469 -1.46631,0.93263 -6.11381,1.00665 -7.00883,0.11162 z m 18.13333,-18.53333 c 1.73846,-1.73846 1.48701,-6.47589 -0.38179,-7.19301 -0.86998,-0.33385 -3.34498,-0.60699 -5.5,-0.60699 h -3.91821 v 4.5 4.5 h 4.3 c 2.365,0 4.84,-0.54 5.5,-1.2 z m 20.89509,18.56175 c -0.3823,-0.38229 -0.69509,-8.2176 -0.69509,-17.41179 0,-19.59967 -1.36687,-17.91468 14.55,-17.93631 10.65483,-0.0145 12.45,0.65275 12.45,4.62733 0,2.50162 -1.5063,3.81979 -4.5,3.93798 -1.1,0.0434 -4.6188,0.15592 -7.81955,0.25 -5.42218,0.15936 -5.79773,0.32467 -5.5,2.42104 0.29277,2.06143 0.91955,2.27447 7.47867,2.54198 7.71726,0.31473 8.88564,1.18933 7.73158,5.78748 -0.57415,2.28761 -1.01344,2.42054 -7.99911,2.42054 -7.18651,0 -7.39159,0.0683 -7.39159,2.46107 0,2.40523 0.19851,2.46762 8.75,2.75 l 8.75,0.28893 v 4 4 l -12.55491,0.27842 c -6.90521,0.15313 -12.86771,-0.0344 -13.25,-0.41667 z m 38.59899,-0.68783 c -4.66486,-1.70814 -5.54267,-2.88989 -4.39292,-5.91394 1.37685,-3.62139 2.38295,-3.95704 6.59093,-2.19884 4.79995,2.00555 10.87186,1.56897 11.3235,-0.81416 0.18272,-0.96417 -0.26353,-1.93964 -0.99168,-2.16771 -0.72815,-0.22808 -3.88221,-1.17913 -7.00902,-2.11346 -7.07037,-2.1127 -10.2455,-5.25813 -10.11063,-10.01605 0.20134,-7.10308 5.81826,-11.44976 14.79574,-11.44976 9.1452,0 13.61537,3.72481 10.15291,8.46 -1.16789,1.59718 -1.78637,1.68912 -4.64923,0.69113 -4.56909,-1.5928 -8.52003,-1.43881 -10.03885,0.39125 -1.69875,2.04686 -0.8301,2.64012 7.79014,5.32039 5.85478,1.82041 7.5435,2.81373 8.75,5.14684 2.91642,5.63973 0.88873,11.62662 -4.86205,14.35555 -3.9703,1.88403 -12.62617,2.03808 -17.34884,0.30876 z m 50.90592,0.12608 c -1.67991,-1.67991 -1.67991,-31.92009 0,-33.6 1.5087,-1.5087 12.96278,-1.5729 19.77997,-0.11087 8.76028,1.87874 14.02003,8.18655 14.02003,16.81365 0,8.31282 -4.4315,14.25698 -12.39111,16.62073 -6.04871,1.79627 -19.71264,1.97274 -21.40889,0.27649 z m 21.47151,-10.19387 c 2.22471,-1.91361 2.78304,-3.23892 2.78304,-6.60613 0,-5.89264 -3.62882,-9 -10.51031,-9 h -4.94424 v 9 9 h 4.94424 c 3.77368,0 5.60312,-0.56675 7.72727,-2.39387 z m 21.78284,10.13551 c -0.27826,-0.72513 -0.38182,-8.72614 -0.23014,-17.78003 l 0.27579,-16.46161 11.85817,-0.28267 c 12.65383,-0.30164 14.64183,0.27984 14.64183,4.28267 0,3.37117 -2.4119,4.84966 -6.7736,4.15219 -2.06952,-0.33093 -5.46517,-0.32542 -7.5459,0.0122 -3.12832,0.50766 -3.73097,0.97927 -3.48181,2.72475 0.27027,1.89336 1.04743,2.14108 7.54321,2.40448 6.75796,0.27402 7.28332,0.45866 7.86167,2.76298 1.04025,4.14469 -1.0416,5.44337 -8.72601,5.44337 -6.6694,0 -6.87756,0.0757 -6.87756,2.5 0,2.33827 0.33964,2.50557 5.25,2.58615 12.96745,0.21277 12.25,-0.0457 12.25,4.41385 v 4 l -12.76986,0.28003 c -9.8488,0.21597 -12.88559,-0.0216 -13.27579,-1.03839 z m 36.7754,0.0881 c -1.7074,-1.7074 -1.73413,-31.92537 -0.0297,-33.62975 0.66,-0.66 2.37,-1.2 3.8,-1.2 4.49655,0 5,1.47591 5,14.65794 v 12.25793 l 7.75,0.29207 7.75,0.29206 v 4 4 l -11.52025,0.27975 c -8.10942,0.19692 -11.88435,-0.0843 -12.75,-0.95 z m 51.21308,-0.11814 c -0.27192,-0.70861 -0.3703,-8.69611 -0.21862,-17.75 l 0.27579,-16.4616 h 12.5 12.5 v 4 4 l -8.31412,0.29148 c -7.93167,0.27807 -8.29966,0.39307 -8,2.5 0.28669,2.01565 0.95231,2.23428 7.6218,2.50349 l 7.30769,0.29498 -0.30769,3.70502 -0.30768,3.70503 -7.25,0.29381 c -6.95244,0.28175 -7.25,0.39462 -7.25,2.75 0,2.38752 0.2074,2.45619 7.41821,2.45619 4.08002,0 8.13002,0.27314 9,0.60699 2.14081,0.8215 2.14081,6.96452 0,7.78602 -0.86998,0.33385 -6.7341,0.60699 -13.03138,0.60699 -8.41913,0 -11.58046,-0.34101 -11.944,-1.28839 z m 38.23276,-0.16325 c -4.82783,-1.72168 -5.04671,-1.9633 -4.30453,-4.75179 1.28778,-4.83835 2.05663,-5.24272 6.54986,-3.44489 4.30166,1.72119 7.8169,2.0699 10.49729,1.04133 3.38879,-1.3004 1.41627,-3.36377 -5.15633,-5.39384 -9.01436,-2.78426 -11.03192,-4.25644 -11.85644,-8.65151 -1.4293,-7.61884 4.86302,-13.34765 14.66061,-13.34765 5.24123,0 11.93395,2.18825 11.93395,3.90192 0,0.55219 -0.53591,2.18017 -1.19091,3.61773 -0.89715,1.96904 -1.69882,2.47064 -3.25,2.03351 -4.4264,-1.24736 -10.12578,-1.59422 -11.45481,-0.69712 -2.5684,1.73368 -0.37061,3.74205 6.04016,5.51958 8.51222,2.36019 10.85556,4.65363 10.85556,10.62438 0,4.82287 -1.67257,7.29386 -6.68426,9.87504 -2.95546,1.52216 -11.95099,1.34556 -16.64015,-0.32668 z m 39.57441,0.78937 c -0.90907,-0.36682 -1.25,-4.01243 -1.25,-13.36626 v -12.86188 l -4.75,-0.30479 -4.75,-0.30479 v -4 -4 h 14.5 14.5 v 4 4 l -4.64784,0.30062 -4.64785,0.30062 -0.69417,8.77065 c -0.38179,4.82386 -0.56068,10.32006 -0.39753,12.21378 0.16315,1.89372 -0.047,3.99915 -0.467,4.67873 -0.7552,1.22193 -4.97708,1.54922 -7.39561,0.57332 z m 20.75,-0.96864 c 0,-2.47377 13.10135,-31.68942 14.85179,-33.11908 2.01663,-1.64707 6.6151,-1.59728 8.01273,0.0868 0.61017,0.73521 4.26313,8.47247 8.11769,17.19392 7.50692,16.98538 7.53754,17.42469 1.21676,17.45401 -2.82163,0.0131 -3.50949,-0.48363 -4.73652,-3.42033 -1.56418,-3.7436 -3.7533,-4.41179 -12.1761,-3.71656 -3.06953,0.25337 -4.37708,0.8627 -4.81551,2.24408 -1.01815,3.20787 -3.45765,4.90808 -7.04227,4.90808 -2.50327,0 -3.42857,-0.44015 -3.42857,-1.63092 z m 21.4438,-14.27815 c 0.29861,-0.48315 -0.19192,-2.61377 -1.09005,-4.7347 l -1.63297,-3.85623 -1.72931,4 c -0.95111,2.2 -1.59923,4.23638 -1.44025,4.52528 0.50829,0.9237 5.32908,0.97741 5.89258,0.0657 z m 23.99903,14.62068 c -0.27192,-0.70861 -0.3703,-8.69611 -0.21862,-17.75 l 0.27579,-16.46161 6.85941,-0.29818 c 17.49037,-0.76032 26.64059,5.3528 26.64059,17.79818 0,12.29306 -8.26891,18 -26.08061,18 -4.77419,0 -7.1385,-0.40743 -7.47656,-1.28839 z m 20.11513,-8.47692 c 2.18597,-1.51801 4.44204,-5.77438 4.44204,-8.38047 0,-1.48542 -1.165,-4.0853 -2.58889,-5.77749 -2.30355,-2.73761 -3.18531,-3.07673 -8,-3.07673 h -5.41111 v 9 9 l 5.25,-0.0153 c 2.8875,-0.008 5.72608,-0.34592 6.30796,-0.75 z m 30.86344,7.86898 c -13.32593,-6.05234 -13.59748,-25.21249 -0.45144,-31.85367 14.1412,-7.14392 30.42992,4.14398 27.61698,19.13825 -2.15631,11.49414 -15.79677,17.87886 -27.16554,12.71542 z m 11.86072,-7.44877 c 4.49756,-1.88001 5.99061,-4.05133 5.99061,-8.71207 0,-5.90635 -3.18304,-8.94283 -9.37446,-8.94283 -6.00733,0 -8.89827,3.07362 -8.89827,9.46054 0,4.18293 2.22019,7.4515 6,8.83323 2.32831,0.85113 2.84276,0.79881 6.28212,-0.63887 z M 28.903971,355.77448 c -0.392843,-0.39285 -0.714259,-3.16156 -0.714259,-6.15269 0,-4.86556 -0.63203,-6.49526 -6,-15.47116 -3.3,-5.518 -6,-10.64571 -6,-11.3949 0,-0.93987 1.342565,-1.36218 4.330462,-1.36218 4.280907,0 4.374725,0.0757 8.198476,6.614 4.372398,7.47646 4.079771,7.53655 9.696443,-1.99096 2.492235,-4.22756 3.055416,-4.62304 6.583334,-4.62304 2.121873,0 4.114412,0.25646 4.427864,0.56991 0.313452,0.31345 -2.186005,5.15095 -5.554349,10.75 -5.39813,8.97308 -6.186981,10.95077 -6.653246,16.68009 l -0.528984,6.5 -3.535741,0.29759 c -1.944658,0.16368 -3.857158,-0.0238 -4.25,-0.41666 z m 47.035741,-1.03941 c -4.205845,-1.7445 -4.765492,-3.86587 -1.940307,-7.35483 1.75515,-2.16752 1.907539,-2.18428 5.056216,-0.55603 4.202963,2.17344 11.480769,1.78697 11.939806,-0.63402 0.247831,-1.30708 -1.029726,-2.0923 -5.491373,-3.37517 -8.454246,-2.43088 -10.963388,-3.97597 -12.195227,-7.50962 -3.183824,-9.13312 5.104745,-15.98892 17.463565,-14.44479 7.141875,0.89232 9.17379,2.49229 7.855641,6.18569 -1.080524,3.02758 -2.274612,3.26556 -9.438321,1.88101 -2.48919,-0.48109 -4.077605,-0.22264 -5.5,0.89489 -1.934675,1.52003 -1.939828,1.61798 -0.157767,2.99903 1.013228,0.78523 3.590247,1.72301 5.726709,2.08397 5.306109,0.89646 10.187902,4.40152 11.240066,8.07021 1.31816,4.59615 -1.330477,10.11134 -5.7409,11.95413 -4.522406,1.88958 -14.030527,1.79132 -18.818108,-0.19447 z m 33.703678,0.39836 c -0.27863,-0.72609 -0.38219,-8.5021 -0.23014,-17.28002 l 0.27646,-15.95986 12.76987,-0.28003 c 13.86344,-0.304 14.64396,0.003 13.32905,5.24197 -0.58464,2.3294 -1.04624,2.47259 -8.85785,2.74776 -7.47763,0.26341 -8.24106,0.47558 -8.24106,2.2903 0,1.77778 0.83333,2.05556 7.5,2.5 l 7.5,0.5 v 3.5 3.5 l -7.5,0.5 c -7.2,0.48 -7.5,0.6 -7.5,3 0,2.45551 0.15674,2.50516 8.80799,2.78978 l 8.808,0.28978 -0.308,3.71022 -0.30799,3.71022 -12.76986,0.28003 c -9.85712,0.21615 -12.88543,-0.0211 -13.27647,-1.04015 z m 36.01072,0.0279 c -0.28452,-0.74144 -0.3929,-8.53002 -0.24085,-17.30794 l 0.27646,-15.95984 10.23239,-0.28479 c 14.92828,-0.41548 19.72531,2.76451 19.57129,12.97399 -0.06,3.97825 -0.61447,5.52576 -2.79543,7.80219 l -2.72057,2.83966 3.15998,4.59288 c 1.73799,2.52608 2.88421,5.0391 2.54715,5.58447 -0.33707,0.54538 -2.35833,0.9916 -4.49169,0.9916 -3.45172,0 -4.23471,-0.49552 -7.1105,-4.5 -2.49522,-3.47453 -3.86357,-4.5 -6.00464,-4.5 -2.54743,0 -2.798,0.34569 -3.08048,4.25 -0.30612,4.23092 -0.32662,4.25138 -4.56665,4.55794 -2.88005,0.20824 -4.42665,-0.12856 -4.77646,-1.04014 z m 19.33561,-17.96778 c 0.66,-0.66 1.2,-2.145 1.2,-3.3 0,-3.18606 -1.9563,-4.5 -6.7,-4.5 h -4.3 v 4.5 4.5 h 4.3 c 2.365,0 4.84,-0.54 5.5,-1.2 z m 29.48255,17.45 c -0.36008,-0.9625 -3.49588,-8.275 -6.96845,-16.25 -3.47256,-7.975 -6.31383,-15.08716 -6.31393,-15.80479 -1.2e-4,-0.93241 1.35245,-1.21781 4.73927,-1 l 4.73944,0.30479 4.44888,10.26167 c 2.44689,5.64392 4.79833,9.91224 5.22541,9.48516 0.42708,-0.42708 2.5606,-5.04483 4.74115,-10.26167 3.92227,-9.3838 4.00419,-9.48856 7.66693,-9.80338 2.03627,-0.17502 4.0918,0.0713 4.56785,0.54732 0.80215,0.80215 -11.09223,30.17115 -13.37339,33.0209 -1.57903,1.97261 -8.68853,1.59737 -9.47316,-0.5 z m 30.38412,1.08333 c -0.36667,-0.36666 -0.66667,-8.24166 -0.66667,-17.5 v -16.83333 h 4.5 c 2.90023,0 4.52207,0.44438 4.56208,1.25 0.0622,1.253 0.0367,31.59023 -0.0278,33 -0.0424,0.92781 -7.44939,1.00158 -8.36763,0.0833 z m 27.83333,-0.75069 c -12.37131,-5.52204 -14.00028,-23.59081 -2.7953,-31.00591 7.2241,-4.78069 18.35821,-4.33202 23.3104,0.93934 l 2.38483,2.53854 -2.69263,2.69264 c -2.64349,2.64349 -2.74577,2.66124 -5.60426,0.97269 -7.19928,-4.25272 -15.10304,-0.39567 -15.10304,7.37032 0,5.50675 3.52727,9.30804 8.61753,9.28697 2.13536,-0.009 5.34595,-0.64635 7.13464,-1.4167 3.01805,-1.29981 3.41298,-1.23983 5.48612,0.83331 2.70079,2.70079 1.84861,4.61769 -3.27424,7.3651 -4.07786,2.18698 -13.02724,2.40411 -17.46405,0.4237 z m 31.68242,0.13716 c -0.77889,-0.9385 -1.07203,-6.4847 -0.91441,-17.30056 l 0.23199,-15.91924 h 4.5 4.5 v 17 17 l -3.58559,0.30056 c -2.15787,0.18089 -4.04207,-0.24945 -4.73199,-1.08076 z m 26.64807,-0.74659 c -5.45756,-2.88293 -8.15394,-7.29673 -8.65039,-14.16013 -0.50619,-6.99802 0.88578,-10.78573 5.43,-14.7756 8.81386,-7.73868 22.51099,-5.86895 29.20262,3.98632 3.18872,4.69628 2.84674,14.83696 -0.66676,19.77122 -4.95243,6.95504 -17.20669,9.46161 -25.31547,5.17819 z m 14.26213,-7.52111 c 5.3555,-2.76943 6.43777,-9.47988 2.31849,-14.37537 -2.15558,-2.56176 -3.31233,-3.07673 -6.91111,-3.07673 -3.59878,0 -4.75553,0.51497 -6.91111,3.07673 -4.04014,4.80143 -2.87085,11.53919 2.52118,14.52776 3.16495,1.7542 5.36789,1.71683 8.98255,-0.15239 z m 25.14205,8.05058 c -4.07542,-1.77107 -4.91378,-3.81727 -2.85277,-6.96278 1.5509,-2.36698 1.71627,-2.39683 5.2044,-0.9394 4.71984,1.97208 11.78021,1.51261 12.21773,-0.79509 0.2388,-1.25957 -0.7858,-1.97514 -3.99138,-2.78752 -11.43408,-2.89771 -15.51117,-6.77754 -14.24039,-13.55139 1.25102,-6.6685 9.89657,-10.72673 19.15266,-8.99028 6.08178,1.14095 7.5473,2.29659 6.7921,5.35595 -1.02166,4.13885 -1.98723,4.57609 -7.00384,3.17152 -3.53342,-0.98929 -5.18291,-1.01957 -7.13327,-0.13093 -3.83757,1.74852 -2.46564,3.27188 5.17936,5.75101 7.22301,2.34229 11.44073,5.83132 11.44073,9.46411 0,3.76497 -2.8472,8.78175 -5.87156,10.3457 -3.80043,1.96528 -14.44093,2.0042 -18.89377,0.0691 z m 52.51533,-0.16116 c -4.07417,-1.68989 -4.6721,-3.58002 -2.23378,-7.06121 1.43972,-2.05549 1.69674,-2.08928 5.09445,-0.66962 4.36605,1.82425 11.88933,1.50679 11.88933,-0.5017 0,-1.7399 -1.52635,-2.55938 -8.70652,-4.67445 -7.27131,-2.14191 -9.29348,-4.34426 -9.29348,-10.12156 0,-3.7704 0.50295,-4.92643 3.18655,-7.32422 3.98806,-3.56333 10.35959,-4.65697 17.35477,-2.97885 5.65493,1.3566 6.79534,2.85841 5.061,6.66487 -0.95956,2.106 -1.63191,2.44022 -3.88146,1.92947 -7.38261,-1.67621 -8.78172,-1.69913 -10.72086,-0.1756 -1.93468,1.52003 -1.93983,1.61798 -0.15777,2.99903 1.01323,0.78523 3.59025,1.72301 5.72671,2.08397 5.49136,0.92776 10.14304,4.35802 11.14139,8.21594 1.23897,4.78771 -1.23593,9.96733 -5.64222,11.8084 -4.52241,1.88958 -14.03053,1.79132 -18.81811,-0.19447 z m 41.73141,0.31814 c -4.28059,-1.94065 -9.26496,-7.98897 -10.05526,-12.20162 -0.88742,-4.73038 0.003,-10.93801 2.00809,-13.99802 0.88788,-1.35509 3.48304,-3.70044 5.76702,-5.2119 3.48349,-2.30527 5.22367,-2.74812 10.79874,-2.74812 5.52214,0 7.326,0.44996 10.66674,2.66076 5.0339,3.33128 7.6076,8.58458 7.54633,15.40319 -0.0571,6.35139 -2.04363,10.44229 -6.85166,14.10956 -2.98645,2.27787 -4.82861,2.82881 -10.25106,3.06577 -4.05578,0.17725 -7.77688,-0.23998 -9.62894,-1.07962 z m 15.26859,-10.21435 c 5.08039,-5.77321 0.83269,-15.44531 -6.78313,-15.44531 -5.63717,0 -9.42142,3.54027 -9.42142,8.81399 0,8.99602 10.38413,13.24547 16.20455,6.63132 z m 28.75223,9.97929 c -11.23447,-5.85782 -13.53881,-19.53363 -4.81464,-28.57394 6.09084,-6.31155 16.33251,-7.47349 24.01623,-2.72469 3.98529,2.46304 4.20971,5.04544 0.64163,7.38334 -2.46539,1.61539 -2.85047,1.62358 -5.40429,0.11501 -6.75385,-3.9896 -14.94116,0.0807 -14.94116,7.42791 0,7.4947 7.31709,11.93153 14.09821,8.54866 4.1494,-2.06999 5.21463,-2.01768 7.36808,0.36186 2.2464,2.48225 1.48008,4.48975 -2.68271,7.02779 -4.0944,2.49633 -13.88057,2.72869 -18.28135,0.43406 z m 32.21203,0.95633 c -0.39284,-0.39285 -0.71426,-8.28926 -0.71426,-17.5476 v -16.83333 h 4.52361 4.52362 l -0.27362,17.25 -0.27361,17.25 -3.53574,0.29759 c -1.94466,0.16368 -3.85716,-0.0238 -4.25,-0.41666 z m 15.82409,-0.31889 c -0.35611,-0.57618 2.61769,-8.47585 6.60843,-17.55482 l 7.2559,-16.50722 h 4.55042 4.55043 l 7.295,16.51983 c 4.01224,9.08591 7.02239,16.96091 6.68921,17.5 -0.70385,1.13886 -6.50853,1.29459 -8.00809,0.21486 -0.5612,-0.40408 -1.56405,-1.97219 -2.22857,-3.48469 -1.16006,-2.64043 -1.49793,-2.74914 -8.47964,-2.72836 -7.20935,0.0215 -7.28425,0.0492 -8.77144,3.25 -1.23428,2.65647 -2.14784,3.28236 -5.1571,3.53319 -2.0114,0.16765 -3.94845,-0.1666 -4.30455,-0.74279 z m 21.46165,-14.91282 c 0,-1.74063 -2.22216,-7.14922 -2.93731,-7.14922 -0.92043,0 -3.06269,4.57947 -3.06269,6.54705 0,0.94772 1.04318,1.45295 3,1.45295 1.65,0 3,-0.38285 3,-0.85078 z m 23.69587,15.21332 c -0.38273,-0.38273 -0.69587,-8.27087 -0.69587,-17.52921 v -16.83333 h 4.5 4.5 v 12.98095 c 0,14.85209 -0.79134,13.77725 10.5,14.26165 l 6,0.2574 v 3.5 3.5 l -12.05413,0.27921 c -6.62977,0.15356 -12.36727,-0.0339 -12.75,-0.41667 z m 32.75781,-0.62266 c -0.27863,-0.72609 -0.38219,-8.5021 -0.23014,-17.28002 l 0.27646,-15.95986 h 13 13 v 3.5 3.5 l -8.75,0.28893 c -8.50891,0.28097 -8.75,0.35559 -8.75,2.70794 0,2.32546 0.29969,2.4303 7.75,2.71107 l 7.75,0.29206 v 3.5 3.5 l -7.81226,0.29318 -7.81225,0.29319 0.31225,2.70681 c 0.31015,2.68849 0.37191,2.70878 9.12025,2.9966 l 8.808,0.28978 -0.308,3.71022 -0.30799,3.71022 -12.76986,0.28003 c -9.85712,0.21615 -12.88542,-0.0211 -13.27646,-1.04015 z m 37.54632,-0.50058 c -2.77388,-1.39295 -3.44153,-2.27354 -3.21818,-4.24455 0.47783,-4.21681 2.33004,-5.28452 5.99534,-3.45603 4.15154,2.07106 11.58045,1.62133 12.02585,-0.72802 0.24784,-1.30733 -1.22888,-2.15065 -6.53102,-3.7297 -8.90788,-2.65288 -11.27199,-4.85195 -11.27199,-10.4851 0,-8.16618 6.83104,-12.53925 17.39761,-11.13754 8.43802,1.11934 10.45903,3.4459 7.12643,8.20385 -1.42695,2.03727 -1.62282,2.05441 -5.8999,0.51639 -3.61717,-1.30073 -4.91244,-1.36827 -7.10259,-0.37037 -3.88929,1.77208 -2.6788,3.37803 4.04891,5.37167 7.83455,2.32164 9.98694,3.55328 11.31908,6.47702 2.32116,5.09438 0.16636,11.22857 -4.85681,13.82615 -4.08605,2.11298 -14.60795,1.97822 -19.03273,-0.24377 z m 51.44216,0.47056 c -0.27229,-0.70958 -0.37067,-8.47208 -0.21862,-17.25 l 0.27646,-15.95986 10.777,-0.28411 c 12.30418,-0.32436 16.16574,0.87588 20.3134,6.31375 3.00749,3.94301 4.14957,11.69821 2.47153,16.78271 -1.46698,4.445 -6.78221,9.23835 -11.7846,10.62752 -5.57294,1.54762 -21.21627,1.38283 -21.83517,-0.23001 z m 21.24189,-8.85215 c 2.89983,-1.4938 4.66426,-5.9954 3.83313,-9.77948 -0.99379,-4.52469 -4.83661,-7.07823 -10.65204,-7.07823 h -4.86514 v 8.83333 c 0,4.85834 0.28796,9.12129 0.63991,9.47324 0.89412,0.89413 8.40988,-0.0919 11.04414,-1.44886 z m 23.01104,9.50404 c -0.3823,-0.38229 -0.69509,-8.27008 -0.69509,-17.52842 v -16.83333 h 13.03138 c 14.10866,0 14.86168,0.30561 13.55741,5.50224 -0.60689,2.41806 -0.89751,2.49776 -9.10784,2.49776 -8.34098,0 -8.48095,0.0406 -8.48095,2.45794 0,2.37402 0.26458,2.4679 7.75,2.75 l 7.75,0.29206 v 3.5 3.5 l -7.81226,0.29318 -7.81225,0.29319 0.31225,2.70681 c 0.31015,2.68849 0.37191,2.70878 9.12025,2.9966 l 8.808,0.28978 -0.308,3.71022 -0.30799,3.71022 -12.55491,0.27842 c -6.90521,0.15313 -12.86771,-0.0344 -13.25,-0.41667 z m 54.28533,-0.081 c -0.0469,-1.87083 -0.0736,-31.90793 -0.0294,-33.08828 0.0343,-0.91436 1.32684,-1.21504 4.29897,-1 l 4.25,0.3075 0.28247,12.46105 c 0.19051,8.40408 0.67887,12.72422 1.5,13.26938 0.66964,0.44459 4.14253,0.72051 7.71753,0.61316 l 6.5,-0.19517 v 3.92579 3.92579 l -12.25,0.28078 c -6.7375,0.15443 -12.25881,-0.0706 -12.26958,-0.5 z m 40.50099,-0.67435 c -4.7263,-2.05938 -9.2514,-7.88982 -10.00053,-12.88534 -2.40983,-16.06991 13.37784,-26.66603 28.27661,-18.97826 12.46694,6.43296 11.56972,26.46207 -1.42868,31.89314 -4.10281,1.71427 -12.88068,1.69888 -16.8474,-0.0295 z m 15.11904,-9.70079 c 2.84787,-2.67545 3.55158,-6.60601 1.89328,-10.57489 -1.54915,-3.70762 -4.13532,-5.33072 -8.49373,-5.33072 -4.38605,0 -6.94631,1.62725 -8.53224,5.42293 -4.02138,9.6245 7.5292,17.62581 15.13269,10.48271 z m 24.08562,10.07779 c -4.71488,-1.41527 -5.67865,-2.70626 -4.51415,-6.04675 1.37549,-3.94573 1.99982,-4.1807 6.31629,-2.37716 4.61526,1.92841 12.01179,1.58387 12.01179,-0.55949 0,-0.97677 -2.44175,-2.28273 -7,-3.74394 -8.21591,-2.63371 -11.5,-5.73132 -11.5,-10.84701 0,-4.84657 2.4068,-8.01709 7.58798,-9.9958 4.74208,-1.81102 12.483,-1.516 16.48995,0.62846 1.72526,0.92333 2.01673,1.73497 1.51821,4.22759 -0.33933,1.69667 -0.83476,3.30266 -1.10095,3.56884 -0.26619,0.26619 -2.8892,-0.093 -5.82891,-0.79825 -4.16079,-0.99816 -5.83709,-1.01884 -7.56638,-0.0934 -3.36247,1.79954 -2.06383,3.33355 4.47762,5.28913 7.95141,2.3771 9.99896,3.53939 11.31202,6.42126 2.53368,5.56081 0.60907,10.99964 -4.90058,13.84879 -3.12158,1.61423 -12.6411,1.87706 -17.30289,0.47772 z M 88.777132,301.33557 c -2.701919,-0.4525 -5.781122,-1.69128 -6.842673,-2.75283 -1.820935,-1.82093 -1.838279,-2.10764 -0.30668,-5.06942 1.604431,-3.10263 1.65874,-3.12107 4.644847,-1.57689 3.962101,2.04888 12.272692,1.62361 12.703917,-0.65009 0.220942,-1.16495 -1.014843,-1.9645 -4.491006,-2.90566 -10.343914,-2.80058 -13.215402,-5.31199 -13.264022,-11.60077 -0.07123,-9.21381 11.704889,-13.82426 23.718195,-9.28587 2.57051,0.97109 3.01065,4.47701 0.92083,7.33499 -1.1093,1.51706 -1.69388,1.62255 -3.53403,0.63773 -2.759705,-1.47695 -11.340384,-0.99877 -11.887178,0.66244 -0.45419,1.37987 2.101335,2.65235 8.658397,4.3113 5.940421,1.50294 10.091981,5.73982 10.091981,10.2994 0,4.55968 -3.6842,8.94285 -8.80679,10.47762 -4.326059,1.29612 -4.557509,1.29847 -11.605788,0.11805 z m 126.354188,0.10975 c -4.84673,-1.47069 -6.94083,-3.12993 -8.96988,-7.1072 -1.76465,-3.45901 -1.99743,-5.54565 -1.75327,-15.71657 l 0.28155,-11.728 4.25,-0.3075 c 4.82359,-0.349 4.51912,-1.22988 4.26429,12.33755 -0.13336,7.10078 1.11952,12.29892 3.29827,13.68429 2.13022,1.3545 6.34144,0.82547 7.99774,-1.00472 1.25384,-1.38548 1.68467,-4.38209 1.90499,-13.25 l 0.28471,-11.45962 h 4.5 4.5 l 0.29103,8.89387 c 0.53877,16.46456 -2.65052,23.62545 -11.42939,25.6624 -4.51514,1.04765 -5.95492,1.04696 -9.42004,-0.005 z m 76.39864,0.0121 c -8.39994,-2.05865 -14.36195,-9.33349 -14.31828,-17.47118 0.0288,-5.3726 3.00871,-11.76631 6.71328,-14.4042 11.07889,-7.88886 27.03401,-2.72731 30.32874,9.81148 3.46688,13.19393 -9.10567,25.4014 -22.72374,22.0639 z m 10.73668,-10.98698 c 2.11567,-2.11566 2.92308,-3.8885 2.92308,-6.41821 0,-4.87637 -0.81151,-6.50988 -4.07152,-8.1957 -5.82868,-3.01412 -12.22821,-0.65872 -13.81395,5.08435 -2.70298,9.78941 7.93024,16.56172 14.96239,9.52956 z m 142.14139,10.48237 c -6.33937,-2.02395 -7.2822,-3.07758 -6.01267,-6.71934 0.97045,-2.78385 1.31869,-2.97211 4.17654,-2.2579 1.7148,0.42855 5.59282,0.8104 8.61782,0.84856 8.14346,0.10274 7.44275,-2.30587 -1.5,-5.15606 -8.25051,-2.62956 -11.5,-5.71808 -11.5,-10.93031 0,-4.86434 4.95489,-9.82292 10.80287,-10.81094 5.11718,-0.86454 14.1052,1.06356 14.92574,3.20186 0.83948,2.18764 -1.14097,6.81826 -2.75692,6.44612 -7.44765,-1.7151 -10.04403,-1.81891 -11.95828,-0.47812 -1.12578,0.78853 -1.815,1.80886 -1.53159,2.26742 0.2834,0.45855 3.68453,1.79637 7.55807,2.97292 3.87353,1.17655 7.92419,3.02058 9.00145,4.09784 3.88777,3.88777 1.67928,12.93537 -3.86889,15.84985 -3.25447,1.70958 -11.59768,2.05896 -15.95414,0.6681 z m 78.42765,0.31877 c -15.15594,-3.50008 -18.67474,-23.87472 -5.61579,-32.51672 5.07632,-3.35935 13.46811,-3.77978 19.68136,-0.98603 5.33652,2.39954 6.05642,4.31128 2.83615,7.53156 -2.47662,2.47661 -2.59784,2.49472 -5.44464,0.81307 -6.41636,-3.79024 -14.42056,-0.87481 -15.65436,5.70191 -1.22933,6.55291 4.30602,12.19266 11.19383,11.40495 2.63869,-0.30178 2.89578,-0.70966 3.35749,-5.3268 l 0.5,-5 h 4 4 v 7.5 7.5 l -3.5,1.64169 c -4.60783,2.16132 -10.58631,2.83742 -15.35404,1.73637 z m 39.35404,-0.01 c -8.11347,-2.40766 -10,-6.72662 -10,-22.89361 v -12.08942 l 4.25,0.3075 4.25,0.3075 0.5,11.83393 c 0.54856,12.98331 1.36716,14.66607 7.13443,14.66607 4.75688,0 5.86557,-2.97182 5.86557,-15.72251 v -11.27749 h 4.5 4.5 l -0.004,12.75 c -0.003,10.88132 -0.28983,13.21921 -1.95578,15.95145 -3.38496,5.55152 -11.86191,8.29701 -19.04048,6.16678 z M 20.148045,300.45105 c -0.02292,-0.58163 -0.04167,-8.0325 -0.04167,-16.5575 0,-8.525 0.01875,-15.97587 0.04167,-16.5575 0.02448,-0.62139 1.794327,-0.93069 4.291667,-0.75 l 4.25,0.3075 v 17 17 l -4.25,0.3075 c -2.49734,0.18069 -4.267183,-0.12861 -4.291667,-0.75 z m 20.041667,-16.5 v -17.5575 h 3.838581 c 3.62386,0 4.217656,0.47834 10.615352,8.55131 3.727224,4.70323 7.007167,8.32092 7.288763,8.03933 0.281595,-0.2816 0.458391,-3.56719 0.392879,-7.30132 -0.148471,-8.46284 0.483851,-9.5165 5.466211,-9.10852 l 3.898214,0.3192 v 17 17 l -3.683532,0.3064 c -3.555514,0.29576 -3.937808,-0.0115 -11,-8.84034 l -7.316468,-9.14675 -0.5,8.84034 -0.5,8.84035 -4.25,0.3075 -4.25,0.3075 z m 84.504938,16.25334 c -0.26346,-0.72096 -0.59734,-6.71084 -0.74197,-13.31084 l -0.26296,-12 -5,-0.5 c -4.95238,-0.49524 -5,-0.53333 -5,-4 v -3.5 h 15 15 v 3.5 3.5 l -5.22133,0.30127 -5.22133,0.30126 -0.27867,13.19874 -0.27867,13.19873 -3.75804,0.31084 c -2.42541,0.20062 -3.92789,-0.15398 -4.23703,-1 z m 27.20933,0.57009 c -0.39284,-0.39285 -0.71426,-8.31514 -0.71426,-17.60509 v -16.89084 l 4.25,0.3075 4.25,0.3075 v 17 17 l -3.53574,0.29759 c -1.94466,0.16368 -3.85716,-0.0238 -4.25,-0.41666 z m 26.79067,-0.57009 c -0.26346,-0.72096 -0.59734,-6.71084 -0.74197,-13.31084 l -0.26296,-12 -5,-0.5 c -4.95238,-0.49524 -5,-0.53333 -5,-4 v -3.5 h 15 15 v 3.5 c 0,3.46667 -0.0476,3.50476 -5,4 l -5,0.5 -0.5,13 -0.5,13 -3.75804,0.31084 c -2.42541,0.20062 -3.92789,-0.15398 -4.23703,-1 z m 74.20879,0.56955 c -0.39255,-0.39255 -0.71372,-6.46407 -0.71372,-13.49227 v -12.77854 l -4.75,-0.30479 c -4.70385,-0.30183 -4.75,-0.3388 -4.75,-3.80479 v -3.5 l 14.75,-0.27673 14.75,-0.27674 v 4.02674 4.02673 h -4.97097 -4.97098 l -0.27902,13.25 -0.27903,13.25 -4.03628,0.29705 c -2.21995,0.16338 -4.35745,-0.0241 -4.75,-0.41666 z m 89.27271,-0.52246 c -0.0725,-7.26138 -0.11592,-30.74775 -0.0593,-32.10793 0.0645,-1.54855 1.25719,-1.75 10.36097,-1.75 11.95037,0 17.58333,2.07369 21.45382,7.89788 3.18504,4.79276 3.18739,14.42734 0.005,19.15017 -4.00481,5.94275 -7.82314,7.39679 -20.4966,7.80523 -8.98348,0.28953 -11.25273,0.089 -11.26357,-0.99535 z m 20.03359,-8.36828 c 5.45326,-2.81999 6.68909,-9.39116 2.64942,-14.08756 -1.88979,-2.19701 -3.40282,-2.79836 -8,-3.1796 l -5.66944,-0.47015 v 9.62383 9.62383 h 4.04966 c 2.22731,0 5.36397,-0.67966 6.97036,-1.51035 z m 23.42214,8.22021 c -0.27229,-0.70958 -0.37067,-8.47208 -0.21862,-17.25 l 0.27646,-15.95986 h 13 13 v 3.5 3.5 l -8.25,0.29044 c -7.97645,0.28081 -8.25,0.37054 -8.25,2.70619 0,2.30518 0.33184,2.4292 7.25,2.70956 l 7.25,0.29381 v 3.5 3.5 l -7.25,0.29381 -7.25,0.29381 v 2.95619 2.95619 h 8.48095 c 8.21033,0 8.50095,0.0797 9.10784,2.49776 1.30468,5.19824 0.55389,5.50224 -13.58879,5.50224 -9.74449,0 -13.18853,-0.32773 -13.55784,-1.29014 z m 89.35825,-13.43119 c -0.16522,-8.12827 -0.15802,-16.01617 0.016,-17.52867 l 0.31642,-2.75 h 12.99395 12.99394 l -0.31036,3.75 -0.31037,3.75 -8.25,0.29044 c -7.97645,0.28081 -8.25,0.37054 -8.25,2.70619 0,2.30518 0.33184,2.4292 7.25,2.70956 l 7.25,0.29381 0.31037,3.75 0.31036,3.75 h -7.56036 -7.56037 v 2.96107 2.96106 l 8.75,0.28894 8.75,0.28893 v 3.5 3.5 l -13.19959,0.27867 -13.19959,0.27868 -0.30041,-14.77868 z m 119.19959,-2.77867 v -17.5 h 9.53212 c 15.25971,0 19.96788,3.07451 19.96788,13.03932 0,5.01648 -0.3889,6.23528 -2.78887,8.74031 -2.51531,2.62541 -2.63145,3.04161 -1.18407,4.24283 1.76137,1.46181 4.47294,6.26782 4.47294,7.92788 0,0.57731 -1.99526,1.04966 -4.4339,1.04966 -4.10319,0 -4.64622,-0.317 -7.28036,-4.25 -2.21838,-3.31223 -3.55687,-4.31914 -6.0661,-4.56336 -3.20161,-0.3116 -3.21964,-0.2878 -3.21964,4.25 v 4.56336 h -4.5 -4.5 z m 17.34933,-0.44272 c 6.37976,-2.42558 3.11408,-9.05728 -4.46011,-9.05728 h -3.88922 v 5 c 0,4.86424 0.0797,5 2.9349,5 1.6142,0 4.05069,-0.42422 5.41443,-0.94272 z m 22.09283,16.65258 c -0.27229,-0.70958 -0.37067,-8.47208 -0.21862,-17.25 l 0.27646,-15.95986 h 4.5 4.5 l 0.28665,15 c 0.36657,19.18252 0.28782,19.5 -4.83709,19.5 -2.35395,0 -4.21695,-0.53324 -4.5074,-1.29014 z m 20.45446,0.14341 c -0.21814,-0.7443 -0.26263,-8.66577 -0.0989,-17.60327 l 0.29774,-16.25 h 10.24037 c 8.63214,0 10.94044,0.35336 14.69813,2.25 6.37749,3.21895 9.14693,8.392 8.72236,16.29254 -0.37144,6.91206 -2.95337,11.44063 -8.08519,14.18106 -4.25933,2.27451 -25.1704,3.19102 -25.77454,1.12967 z m 19.95835,-8.27827 c 5.2812,-2.73102 6.66451,-9.69698 2.81447,-14.17291 -1.88979,-2.19701 -3.40282,-2.79836 -8,-3.1796 l -5.66944,-0.47015 v 9.62383 9.62383 h 4.04966 c 2.22731,0 5.2897,-0.64125 6.80531,-1.425 z m 19.14503,8.07214 c 0,-1.26794 3.65866,-9.93045 12.22471,-28.94405 2.15527,-4.78396 2.17318,-4.79611 6.63093,-4.5 l 4.46982,0.29691 7.3382,16.44907 c 4.15565,9.31517 6.96126,16.82601 6.46905,17.31822 -0.47803,0.47803 -2.61595,0.72595 -4.75093,0.55093 -3.28588,-0.26937 -4.10137,-0.81713 -5.31225,-3.56822 -1.42148,-3.22959 -1.4753,-3.25 -8.56953,-3.25 -7.09423,0 -7.14805,0.0204 -8.56953,3.25 -1.2485,2.83658 -1.9711,3.28912 -5.68047,3.5575 -3.2094,0.23221 -4.25,-0.0519 -4.25,-1.16036 z m 22,-14.1269 c 0,-0.26387 -0.73484,-2.3163 -1.63297,-4.56095 l -1.63296,-4.08119 -1.86704,4.17015 c -1.02687,2.29359 -1.86703,4.34602 -1.86703,4.56095 0,0.21494 1.575,0.3908 3.5,0.3908 1.925,0 3.5,-0.21589 3.5,-0.47976 z m 23,-2.02024 v -17.5 l 10.75,0.0165 c 12.25874,0.0188 16.81866,1.73585 20.97043,7.89666 3.20926,4.76223 3.22003,14.37594 0.0215,19.18901 -3.87049,5.82414 -9.50345,7.89783 -21.45382,7.89783 h -10.28811 z m 22.66944,6.09791 c 1.44915,-1.68474 2.33056,-3.99095 2.33056,-6.09791 0,-5.54415 -3.52906,-8.71347 -10.33056,-9.27751 l -5.66944,-0.47015 v 9.74766 9.74766 l 5.66944,-0.47015 c 4.59718,-0.38124 6.11021,-0.98259 8,-3.1796 z M 154.68972,203.91994 c -16.0774,-2.56379 -37.6059,-9.98723 -39.56166,-13.64161 -1.21062,-2.26206 -1.14628,-33.93028 0.0729,-35.90302 0.62046,-1.00393 3.55895,-1.38111 11.09201,-1.42375 l 10.24795,-0.058 0.68483,3 c 0.37666,1.65 1.4584,6.6 2.40386,11 0.94546,4.4 1.92301,8.73843 2.17232,9.64096 1.13233,4.099 17.15764,8.19884 31.61538,8.08832 11.86253,-0.0907 20.0584,-2.20999 22.40673,-5.794 3.01496,-4.6014 4.51197,-13.33863 3.2299,-18.85112 -2.14593,-9.22677 -9.82929,-14.7322 -34.36426,-24.62334 -33.42251,-13.4741 -44.22659,-22.68055 -48.09114,-40.979772 -3.1011,-14.68416 1.04144,-27.638244 12.50385,-39.100655 8.30953,-8.309534 19.01508,-13.805865 31.99768,-16.427914 11.94422,-2.412334 32.33008,-1.585621 44.08961,1.787976 15.05769,4.319781 20.76561,7.471811 23.65754,13.064193 1.48062,2.863204 0.62245,9.693045 -4.04535,32.19535 l -1.24462,6 -7.51599,0.28904 c -10.63956,0.40917 -12.55868,-0.52328 -13.35343,-6.48809 -2.05286,-15.40719 -3.44461,-21.541863 -5.1769,-22.819144 -2.3581,-1.738756 -11.33238,-4.185246 -18.32121,-4.994591 -6.09864,-0.706256 -17.64352,1.30072 -23.51818,4.088428 -4.02765,1.911245 -5.66383,4.585936 -7.44737,12.174347 -2.47857,10.54556 2.20163,19.6038 13.75513,26.622182 3.14772,1.91214 13.70269,6.82763 23.45548,10.92331 27.61958,11.59884 36.92048,18.20148 42.98083,30.51179 3.09846,6.29387 3.27411,7.24192 3.27411,17.67169 0,9.84417 -0.28409,11.62704 -2.66041,16.69618 -10.27386,21.91608 -39.95114,32.83503 -74.33959,27.35124 z m 143.3625,0.4717 c -12.98349,-2.06829 -33.32524,-8.53458 -39.6125,-12.59213 -2.19112,-1.41407 -2.2496,-1.90285 -2.23469,-18.67901 0.008,-9.47482 0.42588,-17.87585 0.92768,-18.66894 0.69369,-1.09639 3.37303,-1.45589 11.17933,-1.5 l 10.26697,-0.058 0.76189,4 c 0.85707,4.49974 2.57985,12.19316 3.94774,17.62948 0.7717,3.06689 1.64858,3.93833 5.65717,5.62206 5.85939,2.46113 8.35396,3.05793 17.77422,4.2523 8.29105,1.05121 21.55817,-0.17831 27.15422,-2.51649 4.59155,-1.91848 7.26434,-7.90508 7.29351,-16.33622 0.0285,-8.23664 -1.98344,-12.34664 -8.38164,-17.12213 -6.51825,-4.8651 -9.74,-6.44736 -28.5964,-14.04424 -19.06795,-7.68211 -27.89121,-12.70326 -34.89272,-19.85677 -12.48654,-12.75762 -15.25354,-31.197972 -7.15381,-47.675855 6.6842,-13.598191 21.03803,-23.524834 40.54653,-28.040676 8.79027,-2.034778 32.83088,-1.444802 42,1.030714 8.93665,2.412752 19.07101,6.432543 21.97386,8.715922 4.91324,3.864753 5.58924,6.533373 4.03846,15.942381 -1.22699,7.444472 -3.53019,19.193082 -5.02834,25.649522 -0.47887,2.06378 -1.08952,2.25 -7.37803,2.25 -3.77077,0 -8.22673,-0.27416 -9.90214,-0.60924 -2.80512,-0.56102 -3.09748,-1.01605 -3.69437,-5.75 -1.80375,-14.30542 -3.52357,-21.931063 -5.22995,-23.189487 -2.19923,-1.621892 -11.08942,-4.086945 -17.82233,-4.941739 -6.17926,-0.784504 -17.44229,1.046173 -23.33965,3.793594 -9.7586,4.546263 -11.85547,21.493212 -3.85963,31.193552 4.48674,5.4432 12.87224,10.516442 26.95488,16.307752 33.65353,13.83959 43.2606,20.4261 49.62215,34.02042 2.37062,5.06592 2.65526,6.85601 2.65144,16.67515 -0.004,9.85097 -0.28628,11.60385 -2.70393,16.78085 -4.0685,8.71201 -12.22715,16.67731 -21.53569,21.02531 -4.2607,1.99017 -10.44673,4.33459 -13.74673,5.20982 -7.11319,1.88657 -29.55181,2.77017 -37.6375,1.48211 z m 139.6375,-0.48596 c -11.30901,-2.00619 -24.31663,-5.94196 -32.22812,-9.75141 l -6.77188,-3.26072 v -18.16856 c 0,-9.99271 0.33064,-18.49835 0.73476,-18.90143 0.40412,-0.40308 5.19295,-0.94755 10.64183,-1.20993 11.2242,-0.54048 10.10261,-1.39939 12.11798,9.27992 0.62277,3.3 1.77471,8.30535 2.55988,11.12299 1.31293,4.71157 1.80976,5.28556 6.18656,7.14735 12.00367,5.10609 32.0974,6.19238 42.41634,2.29308 4.93199,-1.86369 5.92567,-2.7086 7.75,-6.58971 1.44158,-3.06682 2.09265,-6.44243 2.09265,-10.8498 0,-5.57376 -0.41864,-7.01183 -3.25,-11.16413 -4.24527,-6.22585 -11.06205,-10.22292 -32.01121,-18.77006 -27.96677,-11.41027 -37.93925,-18.25762 -43.73428,-30.029 -11.34152,-23.037892 -1.6729,-47.918819 23.37828,-60.16097 12.51427,-6.115542 22.08004,-7.894384 39.03581,-7.259068 14.4869,0.54281 25.03398,2.802673 35.96044,7.705044 7.14553,3.205985 10.61042,7.243783 10.61722,12.372763 0.006,4.650307 -5.19537,32.074779 -6.36474,33.557279 -0.83191,1.05469 -3.14285,1.25845 -9.90195,0.87307 -4.84923,-0.2765 -8.99829,-0.68422 -9.22013,-0.90607 -0.22185,-0.22185 -1.27362,-6.37591 -2.33726,-13.67571 -2.19254,-15.047368 -2.16937,-15.012085 -11.67218,-17.768527 -10.55307,-3.061084 -27.16027,-1.86182 -35.41816,2.55767 -2.98684,1.598506 -6.16446,8.444167 -6.8063,14.663067 -0.73551,7.12631 1.59055,13.08081 7.09013,18.15015 6.1154,5.636972 11.71549,8.659942 30.31599,16.364752 35.02394,14.50784 45.79081,24.86259 47.06348,45.26205 1.3966,22.38575 -12.3532,39.11456 -37.60161,45.74832 -10.0681,2.64529 -29.71453,3.30636 -40.64353,1.36759 z M 21.132336,200.82535 c -1.082459,-1.30542 -3.320695,-11.38706 -2.672058,-12.0357 0.25624,-0.25624 4.614883,-1.6503 9.685874,-3.09791 7.756653,-2.21428 9.389492,-3.04199 10.288005,-5.2151 1.556463,-3.76442 1.616179,-114.667855 0.06364,-118.18897 -0.941658,-2.135649 -2.832505,-3.146792 -10.478539,-5.60347 l -9.329546,-2.997591 0.265368,-4.121852 c 0.145952,-2.267018 0.697315,-5.257957 1.225249,-6.64653 l 0.959881,-2.524679 h 33.965734 c 26.074445,0 34.153694,0.290414 34.774751,1.25 1.282179,1.981076 3.058015,10.53976 2.40306,11.581602 -0.326724,0.519721 -4.277081,1.936571 -8.778573,3.148557 -13.156715,3.542325 -11.756282,-2.903306 -12.173841,56.031303 -0.350421,49.45863 0.09304,66.13217 1.833789,68.94877 0.455077,0.73633 5.034276,2.76071 10.175998,4.49862 10.320211,3.48826 10.012272,3.02072 7.749163,11.76548 l -0.963842,3.72433 -34.054176,0.27567 c -23.253622,0.18824 -34.335103,-0.0631 -34.939937,-0.79253 z m 583.941234,0.80506 -33.61614,-0.26314 -1.27575,-6.01163 c -0.70167,-3.30639 -1.01442,-6.27296 -0.69502,-6.59237 0.31941,-0.31941 4.54577,-1.69706 9.3919,-3.06145 4.84614,-1.36439 9.37366,-2.94702 10.06116,-3.51694 0.97542,-0.8086 1.25,-14.65675 1.25,-63.04226 V 57.136571 l -12.25,0.668927 c -19.0375,1.039567 -16.87634,-0.650191 -20.30271,15.87417 l -2.94729,14.21388 h -10.48623 -10.48622 l -0.84222,-5.5 c -0.80319,-5.24517 -0.45994,-40.569063 0.40241,-41.411606 0.82295,-0.80405 142.44891,-0.995243 143.74331,-0.194051 0.73208,0.453132 2.09807,2.08514 3.03554,3.626683 1.48336,2.439183 1.59382,4.208886 0.85147,13.64089 -0.46916,5.960946 -1.38516,15.113084 -2.03554,20.338084 l -1.18252,9.5 -9.26043,0.28766 c -10.94247,0.33992 -9.82338,1.73753 -13.16539,-16.44198 -1.96086,-10.666421 -2.50002,-12.225562 -4.40428,-12.736341 -1.19345,-0.320116 -8.1324,-0.588174 -15.4199,-0.595684 l -13.25,-0.01365 0.006,58.250007 c 0.003,36.26813 0.38806,59.62706 1.01913,61.89908 1.10159,3.96597 2.8606,4.98214 14.34577,8.2874 l 5.87048,1.68944 -0.65654,4.94922 c -0.80093,6.0377 -1.38876,7.67245 -2.91174,8.09754 -0.64497,0.18003 -16.29995,0.20891 -34.78883,0.0642 z m 164.48302,0.006 -64.13312,-0.2573 -1.11688,-4.43552 c -2.02686,-8.0494 -2.03814,-8.03316 7.63313,-10.98296 4.8125,-1.46785 9.26955,-2.84028 9.90457,-3.04985 2.02661,-0.66885 2.49492,-15.55832 2.16567,-68.85609 l -0.32024,-51.839208 -2.37448,-1.922056 c -1.30596,-1.05713 -5.73931,-2.899749 -9.85189,-4.094709 -4.11258,-1.19496 -7.69417,-2.737505 -7.95909,-3.427879 -0.26492,-0.690373 0.0378,-3.757689 0.67279,-6.816257 l 1.15447,-5.561033 48.6791,-0.07482 c 26.7735,-0.04115 55.2041,-0.412286 63.1791,-0.824748 7.975,-0.412463 14.95,-0.593915 15.5,-0.403229 1.83255,0.635351 5.5,7.238594 5.5,9.902743 0,2.289364 -4.03224,27.966314 -5.59839,35.650054 -0.55032,2.69995 -0.69439,2.75 -7.91597,2.75 -12.03765,0 -11.79774,0.24506 -14.26403,-14.5702 -1.20718,-7.251635 -2.68303,-13.106065 -3.4221,-13.574872 -0.71473,-0.453367 -12.18444,-0.831195 -25.48824,-0.839617 l -24.18872,-0.01531 -0.51728,4.25 c -0.2845,2.3375 -0.78481,14.77122 -1.11181,27.63048 l -0.59455,23.380481 15.30055,-0.64466 c 8.4153,-0.35457 19.84731,-0.91256 25.40448,-1.23998 l 10.10394,-0.59531 2.06878,2.90534 c 1.97864,2.77874 2.00743,3.22735 0.6608,10.29476 -0.7744,4.06418 -1.76306,7.74449 -2.19703,8.17846 -0.43398,0.43398 -11.79642,0.38944 -25.24988,-0.099 -13.45346,-0.4884 -24.87309,-0.63321 -25.37695,-0.32181 -1.15565,0.71423 0.1046,44.38981 1.37746,47.73767 0.64847,1.70561 2.03439,2.65226 4.71374,3.21973 4.74952,1.00591 42.83477,1.02517 46.50936,0.0235 2.94713,-0.80335 2.67584,-0.0907 6.93595,-18.21973 l 2.34989,-10 9.3985,0.1985 c 5.16918,0.10918 9.80388,0.60388 10.29934,1.09934 0.85807,0.85807 1.31515,44.0225 0.47507,44.86258 -0.7989,0.7989 -5.12349,0.83577 -68.30604,0.58227 z"
       id="path1915" />
  </g>
</svg>
