<?xml version="1.0" encoding="UTF-8" standalone="no"?>
<!-- Created with Inkscape (http://www.inkscape.org/) -->

<svg
   version="1.1"
   id="svg127"
   width="452"
   height="458"
   viewBox="0 0 452 458"
   sodipodi:docname="logo issste.svg"
   inkscape:version="1.1.2 (b8e25be833, 2022-02-05)"
   xmlns:inkscape="http://www.inkscape.org/namespaces/inkscape"
   xmlns:sodipodi="http://sodipodi.sourceforge.net/DTD/sodipodi-0.dtd"
   xmlns="http://www.w3.org/2000/svg"
   xmlns:svg="http://www.w3.org/2000/svg">
  <defs
     id="defs131" />
  <sodipodi:namedview
     id="namedview129"
     pagecolor="#505050"
     bordercolor="#eeeeee"
     borderopacity="1"
     inkscape:pageshadow="0"
     inkscape:pageopacity="0"
     inkscape:pagecheckerboard="0"
     showgrid="false"
     inkscape:zoom="1.4213974"
     inkscape:cx="36.583717"
     inkscape:cy="229.35177"
     inkscape:window-width="1600"
     inkscape:window-height="837"
     inkscape:window-x="-8"
     inkscape:window-y="-8"
     inkscape:window-maximized="1"
     inkscape:current-layer="g133" />
  <g
     inkscape:groupmode="layer"
     inkscape:label="Image"
     id="g133">
    <path
       style="fill:#ececec"
       d="m 210.37634,421.91937 c -20.43779,-14.62661 -71.12468,-42.25653 -98.5,-53.69332 C 69.576001,350.55393 52.101175,340.79648 45.456833,331.13926 39.458648,322.42119 14.259904,263.62535 7.9909326,243.72065 c -2.411778,-7.65767 -2.613404,-9.67447 -2.599312,-26 0.0084,-9.73411 0.89394,-28.72338 1.967861,-42.19838 1.073921,-13.475 2.444574,-30.8 3.0458964,-38.5 1.578059,-20.20725 2.366631,-23.5221 6.562979,-27.58826 3.381753,-3.27684 3.830166,-3.414 11.340823,-3.4688 6.958182,-0.0508 8.167291,-0.3494 10.972945,-2.71021 3.670161,-3.08823 8.268925,-4.162579 15.035107,-3.512429 7.207506,0.692549 11.803359,3.610649 19.559112,12.418919 30.267166,34.37467 40.080546,45.33559 40.599676,45.34728 0.32982,0.007 0.88902,-4.40159 1.24265,-9.79782 0.70616,-10.77535 3.4339,-22.86958 6.52429,-28.92724 4.49937,-8.81949 13.91945,-17.71085 24.65838,-23.274389 7.58382,-3.92896 7.69104,-4.35614 4.46799,-17.80039 -5.98331,-24.95813 3.04906,-43.2875 24.00701,-48.71736 8.95634,-2.32044 23.81482,-1.64663 29.65327,1.34472 5.1924,2.66034 10.05977,8.45743 11.49107,13.68598 1.31799,4.81466 0.23672,37.86598 -1.34026,40.96772 -0.56828,1.11775 -3.29353,4.35906 -6.05611,7.2029 -6.94343,7.14769 -6.29598,8.106609 5.42509,8.034959 16.20107,-0.099 17.52071,1.20145 24.46213,24.10684 4.24821,14.01834 3.43532,13.52584 14.23565,8.6248 7.65133,-3.47207 11.53183,-3.23455 15.72916,0.96278 4.34733,4.34733 4.50511,8.47868 0.55967,14.65422 -3.17449,4.96881 -19.55519,22.03567 -25.54248,26.61242 l -3.88282,2.96806 3.62366,4.74725 c 5.90376,7.73434 6.724,12.29997 6.41322,35.69706 l -0.27125,20.42099 -6.54954,0.5 c -10.04706,0.767 -13.95046,4.28278 -13.95046,12.5651 0,2.26695 0.47297,3.4349 1.391,3.4349 1.43831,0 38.32596,-18.85129 56.33514,-28.78986 5.62438,-3.10387 10.45572,-6.24168 10.73631,-6.97289 0.71164,-1.8545 3.23943,-27.65158 4.55043,-46.43899 1.30323,-18.67596 0.24879,-29.48093 -3.6719,-37.62649 -2.1205,-4.40552 -3.74473,-6.08467 -9.37914,-9.69623 -7.42028,-4.75628 -7.45871,-4.80984 -18.27757,-25.47142 -10.22914,-19.535339 -16.96119,-26.991699 -24.37757,-27.000379 -4.43156,-0.005 -6.3067,2.99572 -6.3067,10.09304 0,7.13784 2.22438,13.50777 6.1207,17.527749 3.38951,3.49709 3.67756,7.8609 0.64425,9.76006 -4.10762,2.57179 -16.2858,-7.79074 -19.58327,-16.663609 -4.56875,-12.29362 -5.02479,-25.18785 -1.15885,-32.76572 3.83099,-7.50937 14.25014,-14.60808 22.95407,-15.63893 6.91727,-0.81925 11.15122,0.24786 17.20938,4.33737 14.89367,10.05385 27.76706,27.16338 30.83259,40.97844 0.88382,3.98297 2.15164,5.89116 6.97442,10.497119 12.48094,11.91983 17.39913,23.34402 17.4667,40.57241 l 0.04,10.20167 21.54492,-21.40266 c 24.07069,-23.91176 27.75832,-26.47307 38.13998,-26.49091 6.4237,-0.011 9.71411,1.00076 14.93639,4.59292 3.34615,2.30167 3.96761,2.40372 8.17926,1.34322 8.24594,-2.07636 16.3317,3.05318 18.58627,11.79096 1.23799,4.79793 3.59083,94.59143 2.79514,106.67361 -0.85083,12.91954 -4.27577,23.44466 -14.50974,44.58952 -9.00417,18.60393 -14.51109,31.44761 -20.06406,46.79496 -5.32952,14.7298 -11.34509,20.57157 -28.60816,27.78161 -55.90225,23.34795 -103.69793,47.59147 -136.13891,69.05406 -6.12639,4.05315 -11.52639,7.3473 -12,7.32033 -0.4736,-0.027 -2.43609,-1.17621 -4.36109,-2.55386 z m 18.42345,-41.24085 c 21.64928,-14.06125 34.47628,-20.7037 77.57655,-40.17293 10.175,-4.59624 26.6,-12.4151 36.5,-17.37525 21.74117,-10.89285 25.05694,-13.79144 31.84349,-27.83708 12.67781,-26.23834 25.97634,-56.89075 27.1993,-62.69299 1.10494,-5.24228 1.17657,-13.84761 0.38991,-46.84469 -0.56205,-23.57576 -1.38866,-41.21677 -1.98338,-42.328 -1.37972,-2.57804 -5.3978,-2.41367 -7.94944,0.32519 -2.35227,2.52487 -4.55904,9.64313 -5.50881,17.7695 -2.27503,19.46546 -12.45497,72.15575 -15.52715,80.3669 -4.82862,12.90564 -16.10712,25.37495 -31.11466,34.39982 -15.61352,9.38929 -28.43759,15.23328 -33.42793,15.23328 -5.89872,0 -10.35731,-5.13461 -9.03466,-10.40449 0.83379,-3.32206 3.2436,-5.05015 24.61333,-17.65037 25.52247,-15.04878 29.99319,-20.11959 30.36888,-34.44514 l 0.13112,-5 -3.5,0.12308 c -2.35982,0.083 -16.73264,6.63584 -44.12011,20.11522 -49.24113,24.23518 -57.50653,28.9697 -65.50903,37.5244 -10.02894,10.72097 -18.42845,29.57671 -21.78089,48.8951 -2.05017,11.81404 -2.08582,11.78982 -5.13998,-3.49207 -3.51592,-17.5923 -11.59395,-35.28543 -20.61805,-45.15923 -6.88247,-7.53053 -18.56384,-14.50663 -49.83194,-29.75959 -14.575,-7.10987 -33.7675,-16.4865 -42.649986,-20.83697 -16.5009,-8.08181 -20.78787,-9.29567 -21.75494,-6.15994 -0.8991,2.91532 1.81319,13.56455 4.71665,18.51894 3.28678,5.60846 9.62367,10.26192 30.188276,22.16862 21.62722,12.52193 25.00612,16.97663 17.771,23.42907 -3.77638,3.36785 -10.0765,2.41242 -21.66248,-3.28518 -20.414236,-10.03905 -33.402236,-19.32666 -40.541771,-28.9911 -10.169078,-13.76537 -12.168117,-21.9919 -19.509538,-80.2864 -1.953005,-15.50782 -4.070624,-29.33667 -4.70582,-30.73077 -2.50664,-5.50148 -7.94977,-3.65346 -9.836463,3.33962 -0.532293,1.97296 -1.437877,14.1622 -2.01241,27.0872 -0.574533,12.925 -1.730354,29.4765 -2.568492,36.7811 -2.221292,19.35918 -2.295106,19.07424 14.304255,55.2189 16.557072,36.05258 19.160317,40.38581 27.37936,45.57426 6.548103,4.13364 30.078829,15.61509 63.382359,30.92645 34.76391,15.98277 51.87401,25.01547 68.3603,36.08852 5.85184,3.93039 11.28025,7.2057 12.06315,7.27847 0.78289,0.0728 6.85789,-3.39739 13.5,-7.71145 z m -7.47878,-114.1773 c 0.0304,-0.28658 -3.59576,-2.27112 -8.0582,-4.41009 -14.62918,-7.01217 -16.8898,-10.26455 -16.88089,-24.28674 0.0105,-16.48977 2.69014,-20.59993 16.09638,-24.68908 8.96744,-2.73524 12.89804,-4.88032 12.89804,-7.03896 0,-0.73288 0.84842,-2.38027 1.88538,-3.66086 1.61636,-1.99611 2.11578,-2.13714 3.5,-0.98834 2.16886,1.79999 2.08958,8.80633 -0.14064,12.42984 -1.00449,1.63202 -4.70744,4.38982 -8.72766,6.5 -9.40672,4.93752 -11.51708,8.16653 -11.51708,17.62203 0,4.67418 0.50088,7.83509 1.44233,9.10212 1.42555,1.91855 1.4647,1.91786 3.36555,-0.0589 1.18524,-1.23256 2.33863,-4.63383 3.00581,-8.86396 1.46948,-9.31693 2.71215,-10.48333 11.5538,-10.8446 l 7.13251,-0.29141 0.6022,-11 c 0.33121,-6.05 0.94362,-11.79209 1.3609,-12.76021 1.53667,-3.56508 -8.26568,-12.797 -12.04702,-11.34596 -0.77187,0.29619 -2.41875,2.64936 -3.65974,5.22925 -3.0203,6.27891 -4.91843,7.37772 -8.85653,5.12692 -3.92261,-2.24194 -4.11053,-2.22535 -8.49495,0.75 -2.58411,1.75363 -5.03199,2.5 -8.19924,2.5 -3.96737,0 -4.97727,-0.48564 -8.32231,-4.00201 -4.74028,-4.98306 -6.88518,-11.82204 -6.87773,-21.92949 0.007,-9.30121 0.90423,-12.76075 6.72837,-25.93885 4.47989,-10.13651 4.54477,-10.42965 2.87737,-13 -4.10008,-6.3204 -5.89216,-11.7405 -6.0008,-18.14927 -0.0931,-5.49295 0.41149,-7.58021 3.20436,-13.25452 l 3.31489,-6.73488 -2.06489,-2.899859 c -1.13568,-1.59492 -2.06488,-3.20803 -2.06488,-3.58469 0,-0.37665 1.98299,-2.61207 4.40665,-4.9676 5.26253,-5.11459 10.23866,-13.47995 11.11935,-18.69272 0.39324,-2.32755 0.0276,-5.86977 -0.95459,-9.24847 -2.00343,-6.89154 -5.65769,-9.77439 -13.18067,-10.39826 -5.15867,-0.42779 -5.30732,-0.36632 -5.87757,2.43086 -1.55886,7.64646 -6.59326,14.89984 -13.50678,19.46005 l -2.41096,1.59029 1.70229,7.05279 c 1.95758,8.11053 2.19744,16.08577 0.5899,19.613939 -0.61182,1.34278 -5.60281,5.47906 -11.09111,9.19173 -22.76325,15.39866 -27.83061,30.4218 -26.46022,78.44622 0.35336,12.38311 1.08838,24.05587 1.63339,25.93946 2.04359,7.06282 7.56621,10.77643 29.03032,19.52103 6.325,2.57684 13.975,6.06526 17,7.75204 7.95847,4.43774 20.43825,13.69246 28.48199,21.12158 l 6.98199,6.44849 2.71268,-2.13393 c 1.49198,-1.17366 2.73758,-2.3684 2.76801,-2.65498 z m -105.5637,-55.72895 c 0.28366,-0.9625 -0.69851,-7.15 -2.18261,-13.75 -2.40936,-10.7148 -2.93934,-12.03422 -4.94836,-12.31955 -1.94614,-0.2764 -2.24957,0.12875 -2.24681,3 0.004,4.51146 2.901,20.77202 4.09914,23.01076 1.2357,2.30893 4.60444,2.34645 5.27864,0.0588 z m 205.38591,0.5 c 0.55648,-0.6875 1.31008,-5.525 1.67469,-10.75 0.3646,-5.225 0.8636,-10.625 1.10889,-12 0.2453,-1.375 0.0131,-3.175 -0.51607,-4 -1.74066,-2.71394 -4.05596,1.13318 -6.08668,10.11368 -2.81734,12.45915 -2.50273,17.88632 1.03683,17.88632 0.97382,0 2.22587,-0.5625 2.78234,-1.25 z M 95.127384,199.12969 c -0.23896,-1.70908 -1.48221,-9.33929 -2.76278,-16.95601 -2.14496,-12.75809 -3.56913,-16.65141 -6.09107,-16.65141 -2.11952,0 -2.03433,3.7911 0.43317,19.27563 2.62393,16.46629 3.8121,19.3744 7.3596,18.0131 1.02845,-0.39465 1.35986,-1.54443 1.06108,-3.68131 z m 245.209516,3.41369 c 2.95431,-1.5811 3.86338,-6.00731 4.61673,-22.47875 0.72968,-15.95405 0.41448,-17.40072 -2.97518,-13.65519 -2.37837,2.62807 -7.09924,31.68971 -5.66323,34.86283 1.1501,2.54136 1.46325,2.64034 4.02168,1.27111 z m -264.947366,-5.537 c 1.87281,-2.2566 0.80851,-11.13622 -4.013342,-33.48411 -4.145266,-19.21209 -5.632827,-23 -9.032391,-23 -3.545136,0 -4.054075,2.23444 -2.529468,11.10534 0.793516,4.61706 2.402516,14.91966 3.575555,22.89466 2.633934,17.90702 3.577656,21.66098 5.766085,22.93648 2.489106,1.45075 4.792859,1.28357 6.233561,-0.45237 z m 287.063796,-2.48411 c 1.91207,-2.68907 9.95813,-47.96609 9.11682,-51.30247 -0.65478,-2.59668 -4.41273,-1.74675 -5.8826,1.33045 -1.72477,3.61086 -10.17281,48.78525 -9.5609,51.12521 0.69271,2.64893 4.05952,2.03525 6.32668,-1.15319 z M 220.37634,177.29896 c 0.62628,-13.43169 1.51042,-14.62523 11.65922,-15.73928 8.55579,-0.93919 12.53146,-2.93749 16.3605,-8.22332 3.32043,-4.58373 3.77065,-6.33136 1.39636,-5.42026 -2.90223,1.11369 -15.13567,1.88136 -18.85669,1.18329 -7.5723,-1.42057 -9.62963,-7.24736 -4.97873,-14.10084 2.64329,-3.89511 2.74188,-8.13657 0.2954,-12.70787 -1.51958,-2.83935 -4.62288,-2.19762 -5.34848,1.10601 -0.73097,3.32809 -3.84415,6.544 -7.77758,8.03422 -2.34953,0.89014 -2.75,1.6078 -2.75,4.92812 0,3.88896 -2.81573,9.76177 -11.34538,23.66324 -5.00375,8.15503 -6.09333,12.50278 -4.64562,18.53752 1.90345,7.93446 5.65825,9.94762 17.991,9.64594 l 7.5,-0.18346 z"
       id="path155" />
  </g>
</svg>
